<svg xmlns="http://www.w3.org/2000/svg" xmlns:xlink="http://www.w3.org/1999/xlink" width="64px" height="64px"><path fill="#FFFFFF" d="M62.96,44.301l-4.801-2.389c-1.913-0.975-2.909-2.887-2.909-5.063v-9.562c0-2.025-0.487-4.05-1.388-5.887 L43.29,2.58c-1.138-2.474-4.218-3.345-6.483-1.834c-1.762,1.174-2.445,3.431-1.634,5.386L45.537,26.5c0.037,0,0,0.038,0.037,0.038 c0.188,0.6,0.301,1.2,0.301,1.837v11.25c0,1.05-1.028,1.875-2.078,1.875c-1.051,0-1.672-0.825-1.672-1.875v-7.5 c0-2.071-1.679-3.75-3.75-3.75s-3.75,1.679-3.75,3.75v13.221c0,4.124,2.053,7.917,5.676,9.886l15.796,8.581 C56.359,63.925,56.621,64,56.922,64c0.121,0,0.242-0.012,0.36-0.035c0.659-0.131,1.196-0.61,1.402-1.249l5.224-16.16 C64.194,45.673,63.791,44.713,62.96,44.301z"/><path fill="#FFFFFF" d="M25.625,28.375c-2.071,0-3.75,1.679-3.75,3.75v7.5c0,1.05-0.622,1.875-1.671,1.875 c-1.05,0-2.079-0.825-2.079-1.875v-11.25c0-0.638,0.113-1.237,0.3-1.837c0.037,0,0-0.038,0.037-0.038L28.827,6.132 c0.812-1.955,0.127-4.212-1.634-5.386c-2.266-1.51-5.345-0.639-6.483,1.834L10.138,21.4c-0.9,1.837-1.388,3.863-1.388,5.888v9.562 c0,2.176-0.997,4.088-2.909,5.063L1.04,44.301c-0.831,0.412-1.234,1.371-0.949,2.255l5.224,16.159 c0.207,0.639,0.744,1.119,1.402,1.25C6.836,63.988,6.958,64,7.079,64c0.3,0,0.563-0.075,0.825-0.188l15.795-8.582 c3.624-1.968,5.676-5.761,5.676-9.885V32.125C29.375,30.054,27.696,28.375,25.625,28.375z"/></svg>