<svg xmlns="http://www.w3.org/2000/svg" xmlns:xlink="http://www.w3.org/1999/xlink" width="64px" height="64px"><path fill="#6f815b" d="M42.975,46.664c1.234,0.801,2.885,0.449,3.689-0.785C52.859,36.338,56,28.977,56,24C56,10.767,45.232,0,32,0 C18.767,0,8,10.767,8,24c0,12.396,19.707,36.352,21.953,39.043C30.46,63.648,31.209,64,31.999,64H32 c0.789,0,1.539-0.352,2.045-0.955c0.123-0.146,3.031-3.631,6.721-8.67c0.869-1.189,0.611-2.859-0.578-3.729 c-1.191-0.871-2.859-0.611-3.727,0.578c-1.732,2.365-3.303,4.398-4.469,5.871C25.356,48.738,13.333,31.952,13.333,24 c0-10.293,8.373-18.667,18.667-18.667c10.293,0,18.666,8.373,18.666,18.667c0,3.818-3.01,10.557-8.475,18.975 C41.389,44.209,41.74,45.861,42.975,46.664z"/><path fill="#6f815b" d="M22.667,21.333c0,5.145,4.187,9.333,9.333,9.333c5.145,0,9.334-4.188,9.334-9.333 C41.334,16.188,37.145,12,32,12C26.854,12,22.667,16.188,22.667,21.333z M36,21.333c0,2.205-1.795,4-4,4s-4-1.795-4-4s1.795-4,4-4 S36,19.128,36,21.333z"/></svg>