<svg xmlns="http://www.w3.org/2000/svg" xmlns:xlink="http://www.w3.org/1999/xlink" width="64px" height="64px"><path fill="#6f815b" d="M57.266,16.84c-1.325,0.641-1.88,2.236-1.239,3.561c1.752,3.619,2.641,7.521,2.641,11.599 c0,14.704-11.963,26.667-26.667,26.667C17.296,58.667,5.333,46.704,5.333,32C5.333,17.296,17.296,5.333,32,5.333 c6.093,0,11.817,1.989,16.555,5.753c1.149,0.917,2.829,0.726,3.747-0.428c0.917-1.152,0.725-2.831-0.429-3.747 C46.265,2.455,39.206,0,32,0C14.356,0,0,14.356,0,32c0,17.644,14.356,32,32,32c17.644,0,32-14.356,32-32 c0-4.889-1.067-9.575-3.173-13.921C60.187,16.75,58.587,16.197,57.266,16.84z"/><path fill="#6f815b" d="M32,10.667c-1.472,0-2.667,1.195-2.667,2.667V32c0,1.472,1.194,2.667,2.667,2.667h13.333 C46.806,34.667,48,33.472,48,32c0-1.472-1.194-2.667-2.667-2.667H34.667v-16C34.667,11.861,33.472,10.667,32,10.667z"/></svg>